# xmcd CD database file
#
# Track frame offsets:
#	150
#	16240
#	32562
#	55762
#	72487
#	93627
#	111975
#	134972
#	155142
#	168259
#	186032
#	201880
#
# Disc length: 3057 seconds
#
# Revision: 0
# Processed by: cddbd v1.4PL0 Copyright (c) Steve Scherf et al.
# Submitted via: CDex 1.50
#
DISCID=ae0bef0c
DTITLE=Jimme Rasmussen - My Favorites
DYEAR=2002
DGENRE=Country
TTITLE0=Gentle On My Mind
TTITLE1=Bobbie Sue
TTITLE2=I Guess It Never Hurts To Hurt Sometimes
TTITLE3=All You Get From Love Is A Love Song
TTITLE4=Crazy
TTITLE5=Make My Life With You
TTITLE6=Islands In The Stream
TTITLE7=On A Long Lonely Night
TTITLE8=American Made
TTITLE9=Promised Land
TTITLE10=My Eyes Adored You
TTITLE11=Honey
EXTD=YEAR: 2002
EXTT0=
EXTT1=
EXTT2=
EXTT3=
EXTT4=
EXTT5=
EXTT6=
EXTT7=
EXTT8=
EXTT9=
EXTT10=
EXTT11=
PLAYORDER=
